# MagicaVoxel @ Ephtracy

# group
o 

# material
mtllib brick.vox.mtl
usemtl palette

# normals
vn -1 0 0
vn 1 0 0
vn 0 0 1
vn 0 0 -1
vn 0 -1 0
vn 0 1 0

# texcoords
vt 0.533203 0.5
vt 0.537109 0.5
vt 0.541016 0.5
vt 0.544922 0.5

# verts
v -1 0.2 0.9
v -1 0.2 0.8
v -1 0.2 -0.8
v -1 0.2 -0.9
v -1 0.3 0.7
v -1 0.3 0.5
v -1 0.3 -0.5
v -1 0.3 -0.7
v -1 0.4 0.6
v -1 0.4 0.5
v -1 0.4 -0.5
v -1 0.4 -0.6
v -1 0.5 0.7
v -1 0.5 0.6
v -1 0.5 -0.6
v -1 0.5 -0.7
v -1 0.7 0.7
v -1 0.7 0.6
v -1 0.7 -0.6
v -1 0.7 -0.7
v -1 0.8 0.6
v -1 0.8 0.5
v -1 0.8 -0.5
v -1 0.8 -0.6
v -1 0.9 0.7
v -1 0.9 0.5
v -1 0.9 -0.5
v -1 0.9 -0.7
v -1 1 0.9
v -1 1 0.8
v -1 1 -0.8
v -1 1 -0.9
v -1 1.2 1
v -1 1.2 0.1
v -1 1.2 -0.1
v -1 1.2 -1
v -1 1.3 0.4
v -1 1.3 0.2
v -1 1.3 -0.2
v -1 1.3 -0.4
v -1 1.4 0.4
v -1 1.4 0.3
v -1 1.4 -0.3
v -1 1.4 -0.4
v -1 1.5 0.3
v -1 1.5 0.2
v -1 1.5 -0.2
v -1 1.5 -0.3
v -1 2 1
v -1 2 0.1
v -1 2 -0.1
v -1 2 -1
v -0.9 0 0.9
v -0.9 0 -0.9
v -0.9 0.2 1
v -0.9 0.2 0.9
v -0.9 0.2 0.8
v -0.9 0.2 -0.8
v -0.9 0.2 -0.9
v -0.9 0.2 -1
v -0.9 1 1
v -0.9 1 0.9
v -0.9 1 0.8
v -0.9 1 -0.8
v -0.9 1 -0.9
v -0.9 1 -1
v -0.9 1.2 0.9
v -0.9 1.2 0.1
v -0.9 1.2 -0.1
v -0.9 1.2 -0.9
v -0.9 1.9 0.1
v -0.9 1.9 -0.1
v 0.1 1.2 1
v 0.1 1.2 0.9
v 0.1 1.2 -0.9
v 0.1 1.2 -1
v 0.1 1.9 0.9
v 0.1 1.9 0.1
v 0.1 1.9 -0.1
v 0.1 1.9 -0.9
v 0.1 2 1
v 0.1 2 0.1
v 0.1 2 -0.1
v 0.1 2 -1
v -0.1 1.2 1
v -0.1 1.2 0.9
v -0.1 1.2 -0.9
v -0.1 1.2 -1
v -0.1 1.9 0.9
v -0.1 1.9 0.1
v -0.1 1.9 -0.1
v -0.1 1.9 -0.9
v -0.1 2 1
v -0.1 2 0.1
v -0.1 2 -0.1
v -0.1 2 -1
v 0.9 0 0.9
v 0.9 0 -0.9
v 0.9 0.2 1
v 0.9 0.2 0.9
v 0.9 0.2 0.8
v 0.9 0.2 -0.8
v 0.9 0.2 -0.9
v 0.9 0.2 -1
v 0.9 1 1
v 0.9 1 0.9
v 0.9 1 0.8
v 0.9 1 -0.8
v 0.9 1 -0.9
v 0.9 1 -1
v 0.9 1.2 0.9
v 0.9 1.2 0.1
v 0.9 1.2 -0.1
v 0.9 1.2 -0.9
v 0.9 1.9 0.1
v 0.9 1.9 -0.1
v 1 0.2 0.9
v 1 0.2 0.8
v 1 0.2 -0.8
v 1 0.2 -0.9
v 1 0.3 0.7
v 1 0.3 0.5
v 1 0.3 -0.5
v 1 0.3 -0.7
v 1 0.4 0.6
v 1 0.4 0.5
v 1 0.4 -0.5
v 1 0.4 -0.6
v 1 0.5 0.7
v 1 0.5 0.6
v 1 0.5 -0.6
v 1 0.5 -0.7
v 1 0.7 0.7
v 1 0.7 0.6
v 1 0.7 -0.6
v 1 0.7 -0.7
v 1 0.8 0.6
v 1 0.8 0.5
v 1 0.8 -0.5
v 1 0.8 -0.6
v 1 0.9 0.7
v 1 0.9 0.5
v 1 0.9 -0.5
v 1 0.9 -0.7
v 1 1 0.9
v 1 1 0.8
v 1 1 -0.8
v 1 1 -0.9
v 1 1.2 1
v 1 1.2 0.1
v 1 1.2 -0.1
v 1 1.2 -1
v 1 1.3 0.4
v 1 1.3 0.2
v 1 1.3 -0.2
v 1 1.3 -0.4
v 1 1.4 0.4
v 1 1.4 0.3
v 1 1.4 -0.3
v 1 1.4 -0.4
v 1 1.5 0.3
v 1 1.5 0.2
v 1 1.5 -0.2
v 1 1.5 -0.3
v 1 2 1
v 1 2 0.1
v 1 2 -0.1
v 1 2 -1
v -1 1.2 1
v -1 2 1
v -0.9 0.2 1
v -0.9 1 1
v -0.8 0.3 1
v -0.8 0.5 1
v -0.8 0.7 1
v -0.8 0.9 1
v -0.7 0.4 1
v -0.7 0.5 1
v -0.7 0.7 1
v -0.7 0.8 1
v -0.5 0.3 1
v -0.5 0.4 1
v -0.5 0.8 1
v -0.5 0.9 1
v -0.5 1.3 1
v -0.5 1.4 1
v -0.5 1.8 1
v -0.5 1.9 1
v -0.3 1.4 1
v -0.3 1.5 1
v -0.3 1.7 1
v -0.3 1.8 1
v -0.2 1.3 1
v -0.2 1.5 1
v -0.2 1.7 1
v -0.2 1.9 1
v -0.1 1.2 1
v -0.1 2 1
v 0.1 1.2 1
v 0.1 2 1
v 0.2 1.3 1
v 0.2 1.5 1
v 0.2 1.7 1
v 0.2 1.9 1
v 0.3 1.4 1
v 0.3 1.5 1
v 0.3 1.7 1
v 0.3 1.8 1
v 0.5 0.3 1
v 0.5 0.4 1
v 0.5 0.8 1
v 0.5 0.9 1
v 0.5 1.3 1
v 0.5 1.4 1
v 0.5 1.8 1
v 0.5 1.9 1
v 0.7 0.4 1
v 0.7 0.5 1
v 0.7 0.7 1
v 0.7 0.8 1
v 0.8 0.3 1
v 0.8 0.5 1
v 0.8 0.7 1
v 0.8 0.9 1
v 0.9 0.2 1
v 0.9 1 1
v 1 1.2 1
v 1 2 1
v -1 0.2 0.9
v -1 1 0.9
v -0.9 0 0.9
v -0.9 0.2 0.9
v -0.9 1 0.9
v -0.9 1.2 0.9
v -0.1 1.2 0.9
v -0.1 1.9 0.9
v 0.1 1.2 0.9
v 0.1 1.9 0.9
v 0.9 0 0.9
v 0.9 0.2 0.9
v 0.9 1 0.9
v 0.9 1.2 0.9
v 1 0.2 0.9
v 1 1 0.9
v -1 1.2 -0.1
v -1 2 -0.1
v -0.9 1.2 -0.1
v -0.9 1.9 -0.1
v -0.1 1.9 -0.1
v -0.1 2 -0.1
v 0.1 1.9 -0.1
v 0.1 2 -0.1
v 0.9 1.2 -0.1
v 0.9 1.9 -0.1
v 1 1.2 -0.1
v 1 2 -0.1
v -1 1.2 0.1
v -1 2 0.1
v -0.9 1.2 0.1
v -0.9 1.9 0.1
v -0.1 1.9 0.1
v -0.1 2 0.1
v 0.1 1.9 0.1
v 0.1 2 0.1
v 0.9 1.2 0.1
v 0.9 1.9 0.1
v 1 1.2 0.1
v 1 2 0.1
v -1 0.2 -0.9
v -1 1 -0.9
v -0.9 0 -0.9
v -0.9 0.2 -0.9
v -0.9 1 -0.9
v -0.9 1.2 -0.9
v -0.1 1.2 -0.9
v -0.1 1.9 -0.9
v 0.1 1.2 -0.9
v 0.1 1.9 -0.9
v 0.9 0 -0.9
v 0.9 0.2 -0.9
v 0.9 1 -0.9
v 0.9 1.2 -0.9
v 1 0.2 -0.9
v 1 1 -0.9
v -1 1.2 -1
v -1 2 -1
v -0.9 0.2 -1
v -0.9 1 -1
v -0.8 0.3 -1
v -0.8 0.5 -1
v -0.8 0.7 -1
v -0.8 0.9 -1
v -0.7 0.4 -1
v -0.7 0.5 -1
v -0.7 0.7 -1
v -0.7 0.8 -1
v -0.5 0.3 -1
v -0.5 0.4 -1
v -0.5 0.8 -1
v -0.5 0.9 -1
v -0.5 1.3 -1
v -0.5 1.4 -1
v -0.5 1.8 -1
v -0.5 1.9 -1
v -0.3 1.4 -1
v -0.3 1.5 -1
v -0.3 1.7 -1
v -0.3 1.8 -1
v -0.2 1.3 -1
v -0.2 1.5 -1
v -0.2 1.7 -1
v -0.2 1.9 -1
v -0.1 1.2 -1
v -0.1 2 -1
v 0.1 1.2 -1
v 0.1 2 -1
v 0.2 1.3 -1
v 0.2 1.5 -1
v 0.2 1.7 -1
v 0.2 1.9 -1
v 0.3 1.4 -1
v 0.3 1.5 -1
v 0.3 1.7 -1
v 0.3 1.8 -1
v 0.5 0.3 -1
v 0.5 0.4 -1
v 0.5 0.8 -1
v 0.5 0.9 -1
v 0.5 1.3 -1
v 0.5 1.4 -1
v 0.5 1.8 -1
v 0.5 1.9 -1
v 0.7 0.4 -1
v 0.7 0.5 -1
v 0.7 0.7 -1
v 0.7 0.8 -1
v 0.8 0.3 -1
v 0.8 0.5 -1
v 0.8 0.7 -1
v 0.8 0.9 -1
v 0.9 0.2 -1
v 0.9 1 -1
v 1 1.2 -1
v 1 2 -1
v -0.9 0 0.9
v 0.9 0 0.9
v -0.9 0 -0.9
v 0.9 0 -0.9
v -0.9 0.2 1
v 0.9 0.2 1
v -1 0.2 0.9
v -0.9 0.2 0.9
v 0.9 0.2 0.9
v 1 0.2 0.9
v -1 0.2 0.8
v -0.9 0.2 0.8
v 0.9 0.2 0.8
v 1 0.2 0.8
v -1 0.2 -0.8
v -0.9 0.2 -0.8
v 0.9 0.2 -0.8
v 1 0.2 -0.8
v -1 0.2 -0.9
v -0.9 0.2 -0.9
v 0.9 0.2 -0.9
v 1 0.2 -0.9
v -0.9 0.2 -1
v 0.9 0.2 -1
v -1 1.2 1
v -0.1 1.2 1
v 0.1 1.2 1
v 1 1.2 1
v -0.9 1.2 0.9
v -0.1 1.2 0.9
v 0.1 1.2 0.9
v 0.9 1.2 0.9
v -1 1.2 0.1
v -0.9 1.2 0.1
v 0.9 1.2 0.1
v 1 1.2 0.1
v -1 1.2 -0.1
v -0.9 1.2 -0.1
v 0.9 1.2 -0.1
v 1 1.2 -0.1
v -0.9 1.2 -0.9
v -0.1 1.2 -0.9
v 0.1 1.2 -0.9
v 0.9 1.2 -0.9
v -1 1.2 -1
v -0.1 1.2 -1
v 0.1 1.2 -1
v 1 1.2 -1
v -0.9 1 1
v 0.9 1 1
v -1 1 0.9
v -0.9 1 0.9
v 0.9 1 0.9
v 1 1 0.9
v -1 1 0.8
v -0.9 1 0.8
v 0.9 1 0.8
v 1 1 0.8
v -1 1 -0.8
v -0.9 1 -0.8
v 0.9 1 -0.8
v 1 1 -0.8
v -1 1 -0.9
v -0.9 1 -0.9
v 0.9 1 -0.9
v 1 1 -0.9
v -0.9 1 -1
v 0.9 1 -1
v -0.1 1.9 0.9
v 0.1 1.9 0.9
v -0.9 1.9 0.1
v -0.1 1.9 0.1
v 0.1 1.9 0.1
v 0.9 1.9 0.1
v -0.9 1.9 -0.1
v -0.1 1.9 -0.1
v 0.1 1.9 -0.1
v 0.9 1.9 -0.1
v -0.1 1.9 -0.9
v 0.1 1.9 -0.9
v -1 2 1
v -0.1 2 1
v 0.1 2 1
v 1 2 1
v -0.5 2 0.9
v -0.2 2 0.9
v 0.2 2 0.9
v 0.5 2 0.9
v -0.5 2 0.8
v -0.3 2 0.8
v 0.3 2 0.8
v 0.5 2 0.8
v -0.3 2 0.7
v -0.2 2 0.7
v 0.2 2 0.7
v 0.3 2 0.7
v -0.3 2 0.4
v -0.2 2 0.4
v 0.2 2 0.4
v 0.3 2 0.4
v -0.5 2 0.3
v -0.3 2 0.3
v 0.3 2 0.3
v 0.5 2 0.3
v -0.5 2 0.2
v -0.2 2 0.2
v 0.2 2 0.2
v 0.5 2 0.2
v -1 2 0.1
v -0.1 2 0.1
v 0.1 2 0.1
v 1 2 0.1
v -1 2 -0.1
v -0.1 2 -0.1
v 0.1 2 -0.1
v 1 2 -0.1
v -0.5 2 -0.2
v -0.2 2 -0.2
v 0.2 2 -0.2
v 0.5 2 -0.2
v -0.5 2 -0.3
v -0.3 2 -0.3
v 0.3 2 -0.3
v 0.5 2 -0.3
v -0.3 2 -0.4
v -0.2 2 -0.4
v 0.2 2 -0.4
v 0.3 2 -0.4
v -0.3 2 -0.7
v -0.2 2 -0.7
v 0.2 2 -0.7
v 0.3 2 -0.7
v -0.5 2 -0.8
v -0.3 2 -0.8
v 0.3 2 -0.8
v 0.5 2 -0.8
v -0.5 2 -0.9
v -0.2 2 -0.9
v 0.2 2 -0.9
v 0.5 2 -0.9
v -1 2 -1
v -0.1 2 -1
v 0.1 2 -1
v 1 2 -1

# faces
f 5/3/1 3/3/1 2/3/1
f 6/3/1 3/3/1 5/3/1
f 7/3/1 3/3/1 6/3/1
f 8/3/1 3/3/1 7/3/1
f 9/4/1 6/4/1 5/4/1
f 10/3/1 7/3/1 6/3/1
f 10/4/1 6/4/1 9/4/1
f 11/4/1 8/4/1 7/4/1
f 11/3/1 7/3/1 10/3/1
f 12/4/1 8/4/1 11/4/1
f 13/3/1 5/3/1 2/3/1
f 13/4/1 9/4/1 5/4/1
f 14/3/1 12/3/1 11/3/1
f 14/4/1 9/4/1 13/4/1
f 14/3/1 10/3/1 9/3/1
f 14/3/1 11/3/1 10/3/1
f 15/4/1 8/4/1 12/4/1
f 15/3/1 12/3/1 14/3/1
f 16/3/1 3/3/1 8/3/1
f 16/4/1 8/4/1 15/4/1
f 17/3/1 14/3/1 13/3/1
f 17/3/1 15/3/1 14/3/1
f 17/3/1 16/3/1 15/3/1
f 17/3/1 13/3/1 2/3/1
f 18/3/1 16/3/1 17/3/1
f 19/3/1 16/3/1 18/3/1
f 20/3/1 3/3/1 16/3/1
f 20/3/1 16/3/1 19/3/1
f 21/3/1 19/3/1 18/3/1
f 21/4/1 18/4/1 17/4/1
f 22/3/1 19/3/1 21/3/1
f 23/3/1 19/3/1 22/3/1
f 24/4/1 20/4/1 19/4/1
f 24/3/1 19/3/1 23/3/1
f 25/3/1 17/3/1 2/3/1
f 25/4/1 21/4/1 17/4/1
f 25/4/1 22/4/1 21/4/1
f 26/3/1 23/3/1 22/3/1
f 26/4/1 22/4/1 25/4/1
f 27/4/1 24/4/1 23/4/1
f 27/3/1 23/3/1 26/3/1
f 28/3/1 3/3/1 20/3/1
f 28/4/1 24/4/1 27/4/1
f 28/4/1 20/4/1 24/4/1
f 29/4/1 2/4/1 1/4/1
f 30/3/1 27/3/1 26/3/1
f 30/4/1 2/4/1 29/4/1
f 30/3/1 26/3/1 25/3/1
f 30/3/1 28/3/1 27/3/1
f 30/3/1 25/3/1 2/3/1
f 31/3/1 3/3/1 28/3/1
f 31/3/1 28/3/1 30/3/1
f 31/4/1 4/4/1 3/4/1
f 32/4/1 4/4/1 31/4/1
f 37/3/1 34/3/1 33/3/1
f 38/3/1 34/3/1 37/3/1
f 39/3/1 36/3/1 35/3/1
f 40/3/1 36/3/1 39/3/1
f 41/3/1 37/3/1 33/3/1
f 41/4/1 38/4/1 37/4/1
f 42/4/1 38/4/1 41/4/1
f 43/4/1 40/4/1 39/4/1
f 44/3/1 36/3/1 40/3/1
f 44/4/1 40/4/1 43/4/1
f 45/4/1 38/4/1 42/4/1
f 45/3/1 42/3/1 41/3/1
f 46/3/1 34/3/1 38/3/1
f 46/4/1 38/4/1 45/4/1
f 47/4/1 43/4/1 39/4/1
f 47/3/1 39/3/1 35/3/1
f 48/3/1 44/3/1 43/3/1
f 48/4/1 43/4/1 47/4/1
f 49/3/1 45/3/1 41/3/1
f 49/3/1 46/3/1 45/3/1
f 49/3/1 41/3/1 33/3/1
f 50/3/1 34/3/1 46/3/1
f 50/3/1 46/3/1 49/3/1
f 51/3/1 48/3/1 47/3/1
f 51/3/1 47/3/1 35/3/1
f 52/3/1 44/3/1 48/3/1
f 52/3/1 48/3/1 51/3/1
f 52/3/1 36/3/1 44/3/1
f 56/4/1 54/4/1 53/4/1
f 57/4/1 54/4/1 56/4/1
f 58/4/1 54/4/1 57/4/1
f 59/4/1 54/4/1 58/4/1
f 61/3/1 56/3/1 55/3/1
f 62/3/1 56/3/1 61/3/1
f 65/3/1 60/3/1 59/3/1
f 66/3/1 60/3/1 65/3/1
f 67/4/1 64/4/1 63/4/1
f 67/4/1 65/4/1 64/4/1
f 67/4/1 63/4/1 62/4/1
f 68/4/1 65/4/1 67/4/1
f 69/4/1 65/4/1 68/4/1
f 70/4/1 65/4/1 69/4/1
f 71/4/1 69/4/1 68/4/1
f 72/4/1 69/4/1 71/4/1
f 77/3/1 74/3/1 73/3/1
f 80/3/1 76/3/1 75/3/1
f 81/3/1 78/3/1 77/3/1
f 81/3/1 77/3/1 73/3/1
f 82/3/1 78/3/1 81/3/1
f 83/3/1 80/3/1 79/3/1
f 84/3/1 76/3/1 80/3/1
f 84/3/1 80/3/1 83/3/1
f 85/3/2 86/3/2 89/3/2
f 87/3/2 88/3/2 92/3/2
f 89/3/2 90/3/2 93/3/2
f 85/3/2 89/3/2 93/3/2
f 93/3/2 90/3/2 94/3/2
f 91/3/2 92/3/2 95/3/2
f 92/3/2 88/3/2 96/3/2
f 95/3/2 92/3/2 96/3/2
f 97/4/2 98/4/2 100/4/2
f 100/4/2 98/4/2 101/4/2
f 101/4/2 98/4/2 102/4/2
f 102/4/2 98/4/2 103/4/2
f 99/3/2 100/3/2 105/3/2
f 105/3/2 100/3/2 106/3/2
f 103/3/2 104/3/2 109/3/2
f 109/3/2 104/3/2 110/3/2
f 107/4/2 108/4/2 111/4/2
f 108/4/2 109/4/2 111/4/2
f 106/4/2 107/4/2 111/4/2
f 111/4/2 109/4/2 112/4/2
f 112/4/2 109/4/2 113/4/2
f 113/4/2 109/4/2 114/4/2
f 112/4/2 113/4/2 115/4/2
f 115/4/2 113/4/2 116/4/2
f 118/3/2 119/3/2 121/3/2
f 121/3/2 119/3/2 122/3/2
f 122/3/2 119/3/2 123/3/2
f 123/3/2 119/3/2 124/3/2
f 121/4/2 122/4/2 125/4/2
f 122/3/2 123/3/2 126/3/2
f 125/4/2 122/4/2 126/4/2
f 123/4/2 124/4/2 127/4/2
f 126/3/2 123/3/2 127/3/2
f 127/4/2 124/4/2 128/4/2
f 118/3/2 121/3/2 129/3/2
f 121/4/2 125/4/2 129/4/2
f 127/3/2 128/3/2 130/3/2
f 129/4/2 125/4/2 130/4/2
f 125/3/2 126/3/2 130/3/2
f 126/3/2 127/3/2 130/3/2
f 128/4/2 124/4/2 131/4/2
f 130/3/2 128/3/2 131/3/2
f 124/3/2 119/3/2 132/3/2
f 131/4/2 124/4/2 132/4/2
f 129/3/2 130/3/2 133/3/2
f 130/3/2 131/3/2 133/3/2
f 131/3/2 132/3/2 133/3/2
f 118/3/2 129/3/2 133/3/2
f 133/3/2 132/3/2 134/3/2
f 134/3/2 132/3/2 135/3/2
f 132/3/2 119/3/2 136/3/2
f 135/3/2 132/3/2 136/3/2
f 134/3/2 135/3/2 137/3/2
f 133/4/2 134/4/2 137/4/2
f 137/3/2 135/3/2 138/3/2
f 138/3/2 135/3/2 139/3/2
f 135/4/2 136/4/2 140/4/2
f 139/3/2 135/3/2 140/3/2
f 118/3/2 133/3/2 141/3/2
f 133/4/2 137/4/2 141/4/2
f 137/4/2 138/4/2 141/4/2
f 138/3/2 139/3/2 142/3/2
f 141/4/2 138/4/2 142/4/2
f 139/4/2 140/4/2 143/4/2
f 142/3/2 139/3/2 143/3/2
f 136/3/2 119/3/2 144/3/2
f 143/4/2 140/4/2 144/4/2
f 140/4/2 136/4/2 144/4/2
f 117/4/2 118/4/2 145/4/2
f 142/3/2 143/3/2 146/3/2
f 145/4/2 118/4/2 146/4/2
f 141/3/2 142/3/2 146/3/2
f 143/3/2 144/3/2 146/3/2
f 118/3/2 141/3/2 146/3/2
f 144/3/2 119/3/2 147/3/2
f 146/3/2 144/3/2 147/3/2
f 119/4/2 120/4/2 147/4/2
f 147/4/2 120/4/2 148/4/2
f 149/3/2 150/3/2 153/3/2
f 153/3/2 150/3/2 154/3/2
f 151/3/2 152/3/2 155/3/2
f 155/3/2 152/3/2 156/3/2
f 149/3/2 153/3/2 157/3/2
f 153/4/2 154/4/2 157/4/2
f 157/4/2 154/4/2 158/4/2
f 155/4/2 156/4/2 159/4/2
f 156/3/2 152/3/2 160/3/2
f 159/4/2 156/4/2 160/4/2
f 158/4/2 154/4/2 161/4/2
f 157/3/2 158/3/2 161/3/2
f 154/3/2 150/3/2 162/3/2
f 161/4/2 154/4/2 162/4/2
f 155/4/2 159/4/2 163/4/2
f 151/3/2 155/3/2 163/3/2
f 159/3/2 160/3/2 164/3/2
f 163/4/2 159/4/2 164/4/2
f 157/3/2 161/3/2 165/3/2
f 161/3/2 162/3/2 165/3/2
f 149/3/2 157/3/2 165/3/2
f 162/3/2 150/3/2 166/3/2
f 165/3/2 162/3/2 166/3/2
f 163/3/2 164/3/2 167/3/2
f 151/3/2 163/3/2 167/3/2
f 164/3/2 160/3/2 168/3/2
f 167/3/2 164/3/2 168/3/2
f 160/3/2 152/3/2 168/3/2
f 173/3/3 172/3/3 171/3/3
f 174/3/3 172/3/3 173/3/3
f 175/3/3 172/3/3 174/3/3
f 176/3/3 172/3/3 175/3/3
f 177/4/3 174/4/3 173/4/3
f 178/3/3 175/3/3 174/3/3
f 178/4/3 174/4/3 177/4/3
f 179/4/3 176/4/3 175/4/3
f 179/3/3 175/3/3 178/3/3
f 180/4/3 176/4/3 179/4/3
f 181/3/3 173/3/3 171/3/3
f 181/4/3 177/4/3 173/4/3
f 182/3/3 180/3/3 179/3/3
f 182/4/3 177/4/3 181/4/3
f 182/3/3 178/3/3 177/3/3
f 182/3/3 179/3/3 178/3/3
f 183/4/3 176/4/3 180/4/3
f 183/3/3 180/3/3 182/3/3
f 184/3/3 172/3/3 176/3/3
f 184/4/3 176/4/3 183/4/3
f 185/3/3 170/3/3 169/3/3
f 186/3/3 170/3/3 185/3/3
f 187/3/3 170/3/3 186/3/3
f 188/3/3 170/3/3 187/3/3
f 189/4/3 186/4/3 185/4/3
f 189/3/3 187/3/3 186/3/3
f 190/3/3 187/3/3 189/3/3
f 191/3/3 187/3/3 190/3/3
f 192/4/3 188/4/3 187/4/3
f 192/3/3 187/3/3 191/3/3
f 193/3/3 185/3/3 169/3/3
f 193/4/3 189/4/3 185/4/3
f 193/4/3 190/4/3 189/4/3
f 194/3/3 191/3/3 190/3/3
f 194/4/3 190/4/3 193/4/3
f 195/4/3 192/4/3 191/4/3
f 195/3/3 191/3/3 194/3/3
f 196/4/3 188/4/3 192/4/3
f 196/4/3 192/4/3 195/4/3
f 196/3/3 170/3/3 188/3/3
f 197/3/3 195/3/3 194/3/3
f 197/3/3 194/3/3 193/3/3
f 197/3/3 196/3/3 195/3/3
f 197/3/3 193/3/3 169/3/3
f 198/3/3 170/3/3 196/3/3
f 198/3/3 196/3/3 197/3/3
f 201/3/3 200/3/3 199/3/3
f 202/3/3 200/3/3 201/3/3
f 203/3/3 200/3/3 202/3/3
f 204/3/3 200/3/3 203/3/3
f 205/4/3 202/4/3 201/4/3
f 206/3/3 203/3/3 202/3/3
f 206/4/3 202/4/3 205/4/3
f 207/4/3 204/4/3 203/4/3
f 207/3/3 203/3/3 206/3/3
f 208/4/3 204/4/3 207/4/3
f 209/3/3 182/3/3 181/3/3
f 209/3/3 183/3/3 182/3/3
f 209/3/3 181/3/3 171/3/3
f 209/3/3 184/3/3 183/3/3
f 210/3/3 184/3/3 209/3/3
f 211/3/3 184/3/3 210/3/3
f 212/3/3 172/3/3 184/3/3
f 212/3/3 184/3/3 211/3/3
f 213/3/3 201/3/3 199/3/3
f 213/4/3 205/4/3 201/4/3
f 214/3/3 208/3/3 207/3/3
f 214/4/3 205/4/3 213/4/3
f 214/3/3 207/3/3 206/3/3
f 214/3/3 206/3/3 205/3/3
f 215/4/3 204/4/3 208/4/3
f 215/3/3 208/3/3 214/3/3
f 216/3/3 200/3/3 204/3/3
f 216/4/3 204/4/3 215/4/3
f 217/3/3 211/3/3 210/3/3
f 217/4/3 210/4/3 209/4/3
f 218/3/3 211/3/3 217/3/3
f 219/3/3 211/3/3 218/3/3
f 220/4/3 212/4/3 211/4/3
f 220/3/3 211/3/3 219/3/3
f 221/3/3 209/3/3 171/3/3
f 221/4/3 217/4/3 209/4/3
f 221/4/3 218/4/3 217/4/3
f 222/3/3 219/3/3 218/3/3
f 222/4/3 218/4/3 221/4/3
f 223/4/3 220/4/3 219/4/3
f 223/3/3 219/3/3 222/3/3
f 224/4/3 212/4/3 220/4/3
f 224/4/3 220/4/3 223/4/3
f 224/3/3 172/3/3 212/3/3
f 225/3/3 223/3/3 222/3/3
f 225/3/3 222/3/3 221/3/3
f 225/3/3 224/3/3 223/3/3
f 225/3/3 221/3/3 171/3/3
f 226/3/3 172/3/3 224/3/3
f 226/3/3 224/3/3 225/3/3
f 227/3/3 214/3/3 213/3/3
f 227/3/3 215/3/3 214/3/3
f 227/3/3 213/3/3 199/3/3
f 227/3/3 216/3/3 215/3/3
f 228/3/3 200/3/3 216/3/3
f 228/3/3 216/3/3 227/3/3
f 232/4/3 230/4/3 229/4/3
f 233/4/3 230/4/3 232/4/3
f 235/4/3 234/4/3 233/4/3
f 237/4/3 235/4/3 233/4/3
f 237/4/3 236/4/3 235/4/3
f 238/4/3 236/4/3 237/4/3
f 239/4/3 232/4/3 231/4/3
f 240/4/3 232/4/3 239/4/3
f 241/4/3 237/4/3 233/4/3
f 242/4/3 237/4/3 241/4/3
f 243/4/3 241/4/3 240/4/3
f 244/4/3 241/4/3 243/4/3
f 247/3/3 246/3/3 245/3/3
f 248/3/3 246/3/3 247/3/3
f 249/3/3 246/3/3 248/3/3
f 250/3/3 246/3/3 249/3/3
f 254/3/3 252/3/3 251/3/3
f 255/3/3 254/3/3 253/3/3
f 256/3/3 252/3/3 254/3/3
f 256/3/3 254/3/3 255/3/3
f 257/3/4 258/3/4 259/3/4
f 259/3/4 258/3/4 260/3/4
f 260/3/4 258/3/4 261/3/4
f 261/3/4 258/3/4 262/3/4
f 263/3/4 264/3/4 266/3/4
f 265/3/4 266/3/4 267/3/4
f 266/3/4 264/3/4 268/3/4
f 267/3/4 266/3/4 268/3/4
f 269/4/4 270/4/4 272/4/4
f 272/4/4 270/4/4 273/4/4
f 273/4/4 274/4/4 275/4/4
f 273/4/4 275/4/4 277/4/4
f 275/4/4 276/4/4 277/4/4
f 277/4/4 276/4/4 278/4/4
f 271/4/4 272/4/4 279/4/4
f 279/4/4 272/4/4 280/4/4
f 273/4/4 277/4/4 281/4/4
f 281/4/4 277/4/4 282/4/4
f 280/4/4 281/4/4 283/4/4
f 283/4/4 281/4/4 284/4/4
f 287/3/4 288/3/4 289/3/4
f 289/3/4 288/3/4 290/3/4
f 290/3/4 288/3/4 291/3/4
f 291/3/4 288/3/4 292/3/4
f 289/4/4 290/4/4 293/4/4
f 290/3/4 291/3/4 294/3/4
f 293/4/4 290/4/4 294/4/4
f 291/4/4 292/4/4 295/4/4
f 294/3/4 291/3/4 295/3/4
f 295/4/4 292/4/4 296/4/4
f 287/3/4 289/3/4 297/3/4
f 289/4/4 293/4/4 297/4/4
f 295/3/4 296/3/4 298/3/4
f 297/4/4 293/4/4 298/4/4
f 293/3/4 294/3/4 298/3/4
f 294/3/4 295/3/4 298/3/4
f 296/4/4 292/4/4 299/4/4
f 298/3/4 296/3/4 299/3/4
f 292/3/4 288/3/4 300/3/4
f 299/4/4 292/4/4 300/4/4
f 285/3/4 286/3/4 301/3/4
f 301/3/4 286/3/4 302/3/4
f 302/3/4 286/3/4 303/3/4
f 303/3/4 286/3/4 304/3/4
f 301/4/4 302/4/4 305/4/4
f 302/3/4 303/3/4 305/3/4
f 305/3/4 303/3/4 306/3/4
f 306/3/4 303/3/4 307/3/4
f 303/4/4 304/4/4 308/4/4
f 307/3/4 303/3/4 308/3/4
f 285/3/4 301/3/4 309/3/4
f 301/4/4 305/4/4 309/4/4
f 305/4/4 306/4/4 309/4/4
f 306/3/4 307/3/4 310/3/4
f 309/4/4 306/4/4 310/4/4
f 307/4/4 308/4/4 311/4/4
f 310/3/4 307/3/4 311/3/4
f 308/4/4 304/4/4 312/4/4
f 311/4/4 308/4/4 312/4/4
f 304/3/4 286/3/4 312/3/4
f 310/3/4 311/3/4 313/3/4
f 309/3/4 310/3/4 313/3/4
f 311/3/4 312/3/4 313/3/4
f 285/3/4 309/3/4 313/3/4
f 312/3/4 286/3/4 314/3/4
f 313/3/4 312/3/4 314/3/4
f 315/3/4 316/3/4 317/3/4
f 317/3/4 316/3/4 318/3/4
f 318/3/4 316/3/4 319/3/4
f 319/3/4 316/3/4 320/3/4
f 317/4/4 318/4/4 321/4/4
f 318/3/4 319/3/4 322/3/4
f 321/4/4 318/4/4 322/4/4
f 319/4/4 320/4/4 323/4/4
f 322/3/4 319/3/4 323/3/4
f 323/4/4 320/4/4 324/4/4
f 297/3/4 298/3/4 325/3/4
f 298/3/4 299/3/4 325/3/4
f 287/3/4 297/3/4 325/3/4
f 299/3/4 300/3/4 325/3/4
f 325/3/4 300/3/4 326/3/4
f 326/3/4 300/3/4 327/3/4
f 300/3/4 288/3/4 328/3/4
f 327/3/4 300/3/4 328/3/4
f 315/3/4 317/3/4 329/3/4
f 317/4/4 321/4/4 329/4/4
f 323/3/4 324/3/4 330/3/4
f 329/4/4 321/4/4 330/4/4
f 322/3/4 323/3/4 330/3/4
f 321/3/4 322/3/4 330/3/4
f 324/4/4 320/4/4 331/4/4
f 330/3/4 324/3/4 331/3/4
f 320/3/4 316/3/4 332/3/4
f 331/4/4 320/4/4 332/4/4
f 326/3/4 327/3/4 333/3/4
f 325/4/4 326/4/4 333/4/4
f 333/3/4 327/3/4 334/3/4
f 334/3/4 327/3/4 335/3/4
f 327/4/4 328/4/4 336/4/4
f 335/3/4 327/3/4 336/3/4
f 287/3/4 325/3/4 337/3/4
f 325/4/4 333/4/4 337/4/4
f 333/4/4 334/4/4 337/4/4
f 334/3/4 335/3/4 338/3/4
f 337/4/4 334/4/4 338/4/4
f 335/4/4 336/4/4 339/4/4
f 338/3/4 335/3/4 339/3/4
f 336/4/4 328/4/4 340/4/4
f 339/4/4 336/4/4 340/4/4
f 328/3/4 288/3/4 340/3/4
f 338/3/4 339/3/4 341/3/4
f 337/3/4 338/3/4 341/3/4
f 339/3/4 340/3/4 341/3/4
f 287/3/4 337/3/4 341/3/4
f 340/3/4 288/3/4 342/3/4
f 341/3/4 340/3/4 342/3/4
f 329/3/4 330/3/4 343/3/4
f 330/3/4 331/3/4 343/3/4
f 315/3/4 329/3/4 343/3/4
f 331/3/4 332/3/4 343/3/4
f 332/3/4 316/3/4 344/3/4
f 343/3/4 332/3/4 344/3/4
f 347/4/5 346/4/5 345/4/5
f 348/4/5 346/4/5 347/4/5
f 352/3/5 350/3/5 349/3/5
f 353/3/5 350/3/5 352/3/5
f 355/4/5 352/4/5 351/4/5
f 356/4/5 352/4/5 355/4/5
f 357/4/5 354/4/5 353/4/5
f 358/4/5 354/4/5 357/4/5
f 359/3/5 356/3/5 355/3/5
f 360/3/5 356/3/5 359/3/5
f 361/3/5 358/3/5 357/3/5
f 362/3/5 358/3/5 361/3/5
f 363/4/5 360/4/5 359/4/5
f 364/4/5 360/4/5 363/4/5
f 365/4/5 362/4/5 361/4/5
f 366/4/5 362/4/5 365/4/5
f 367/3/5 365/3/5 364/3/5
f 368/3/5 365/3/5 367/3/5
f 373/3/5 370/3/5 369/3/5
f 374/3/5 370/3/5 373/3/5
f 375/3/5 372/3/5 371/3/5
f 376/3/5 372/3/5 375/3/5
f 377/3/5 373/3/5 369/3/5
f 378/3/5 373/3/5 377/3/5
f 379/3/5 372/3/5 376/3/5
f 380/3/5 372/3/5 379/3/5
f 385/3/5 382/3/5 381/3/5
f 388/3/5 384/3/5 383/3/5
f 389/3/5 386/3/5 385/3/5
f 389/3/5 385/3/5 381/3/5
f 390/3/5 386/3/5 389/3/5
f 391/3/5 388/3/5 387/3/5
f 392/3/5 384/3/5 388/3/5
f 392/3/5 388/3/5 391/3/5
f 393/3/6 394/3/6 396/3/6
f 396/3/6 394/3/6 397/3/6
f 395/4/6 396/4/6 399/4/6
f 399/4/6 396/4/6 400/4/6
f 397/4/6 398/4/6 401/4/6
f 401/4/6 398/4/6 402/4/6
f 399/3/6 400/3/6 403/3/6
f 403/3/6 400/3/6 404/3/6
f 401/3/6 402/3/6 405/3/6
f 405/3/6 402/3/6 406/3/6
f 403/4/6 404/4/6 407/4/6
f 407/4/6 404/4/6 408/4/6
f 405/4/6 406/4/6 409/4/6
f 409/4/6 406/4/6 410/4/6
f 408/3/6 409/3/6 411/3/6
f 411/3/6 409/3/6 412/3/6
f 413/4/6 414/4/6 416/4/6
f 416/4/6 414/4/6 417/4/6
f 415/4/6 416/4/6 419/4/6
f 417/4/6 418/4/6 419/4/6
f 416/4/6 417/4/6 419/4/6
f 419/4/6 418/4/6 420/4/6
f 420/4/6 418/4/6 421/4/6
f 421/4/6 418/4/6 422/4/6
f 420/4/6 421/4/6 423/4/6
f 423/4/6 421/4/6 424/4/6
f 425/3/6 426/3/6 429/3/6
f 429/3/6 426/3/6 430/3/6
f 427/3/6 428/3/6 431/3/6
f 431/3/6 428/3/6 432/3/6
f 425/3/6 429/3/6 433/3/6
f 429/4/6 430/4/6 433/4/6
f 433/4/6 430/4/6 434/4/6
f 431/4/6 432/4/6 435/4/6
f 432/3/6 428/3/6 436/3/6
f 435/4/6 432/4/6 436/4/6
f 434/4/6 430/4/6 437/4/6
f 433/3/6 434/3/6 437/3/6
f 430/3/6 426/3/6 438/3/6
f 437/4/6 430/4/6 438/4/6
f 431/4/6 435/4/6 439/4/6
f 427/3/6 431/3/6 439/3/6
f 435/3/6 436/3/6 440/3/6
f 439/4/6 435/4/6 440/4/6
f 433/3/6 437/3/6 441/3/6
f 437/3/6 438/3/6 441/3/6
f 438/3/6 426/3/6 442/3/6
f 441/3/6 438/3/6 442/3/6
f 439/3/6 440/3/6 443/3/6
f 427/3/6 439/3/6 443/3/6
f 440/3/6 436/3/6 444/3/6
f 443/3/6 440/3/6 444/3/6
f 433/3/6 441/3/6 445/3/6
f 425/3/6 433/3/6 445/3/6
f 441/4/6 442/4/6 446/4/6
f 445/3/6 441/3/6 446/3/6
f 444/3/6 436/3/6 447/3/6
f 443/4/6 444/4/6 447/4/6
f 436/3/6 428/3/6 448/3/6
f 447/3/6 436/3/6 448/3/6
f 445/4/6 446/4/6 449/4/6
f 425/3/6 445/3/6 449/3/6
f 446/4/6 442/4/6 450/4/6
f 449/4/6 446/4/6 450/4/6
f 442/3/6 426/3/6 450/3/6
f 427/3/6 443/3/6 451/3/6
f 443/4/6 447/4/6 451/4/6
f 447/4/6 448/4/6 451/4/6
f 448/3/6 428/3/6 452/3/6
f 451/4/6 448/4/6 452/4/6
f 425/3/6 449/3/6 453/3/6
f 449/3/6 450/3/6 453/3/6
f 450/3/6 426/3/6 454/3/6
f 453/3/6 450/3/6 454/3/6
f 451/3/6 452/3/6 455/3/6
f 427/3/6 451/3/6 455/3/6
f 452/3/6 428/3/6 456/3/6
f 455/3/6 452/3/6 456/3/6
f 457/3/6 458/3/6 461/3/6
f 461/3/6 458/3/6 462/3/6
f 459/3/6 460/3/6 463/3/6
f 463/3/6 460/3/6 464/3/6
f 457/3/6 461/3/6 465/3/6
f 461/4/6 462/4/6 465/4/6
f 465/4/6 462/4/6 466/4/6
f 463/4/6 464/4/6 467/4/6
f 464/3/6 460/3/6 468/3/6
f 467/4/6 464/4/6 468/4/6
f 466/4/6 462/4/6 469/4/6
f 465/3/6 466/3/6 469/3/6
f 462/3/6 458/3/6 470/3/6
f 469/4/6 462/4/6 470/4/6
f 463/4/6 467/4/6 471/4/6
f 459/3/6 463/3/6 471/3/6
f 467/3/6 468/3/6 472/3/6
f 471/4/6 467/4/6 472/4/6
f 465/3/6 469/3/6 473/3/6
f 469/3/6 470/3/6 473/3/6
f 470/3/6 458/3/6 474/3/6
f 473/3/6 470/3/6 474/3/6
f 471/3/6 472/3/6 475/3/6
f 459/3/6 471/3/6 475/3/6
f 472/3/6 468/3/6 476/3/6
f 475/3/6 472/3/6 476/3/6
f 465/3/6 473/3/6 477/3/6
f 457/3/6 465/3/6 477/3/6
f 473/4/6 474/4/6 478/4/6
f 477/3/6 473/3/6 478/3/6
f 476/3/6 468/3/6 479/3/6
f 475/4/6 476/4/6 479/4/6
f 468/3/6 460/3/6 480/3/6
f 479/3/6 468/3/6 480/3/6
f 477/4/6 478/4/6 481/4/6
f 457/3/6 477/3/6 481/3/6
f 478/4/6 474/4/6 482/4/6
f 481/4/6 478/4/6 482/4/6
f 474/3/6 458/3/6 482/3/6
f 459/3/6 475/3/6 483/3/6
f 475/4/6 479/4/6 483/4/6
f 479/4/6 480/4/6 483/4/6
f 480/3/6 460/3/6 484/3/6
f 483/4/6 480/4/6 484/4/6
f 457/3/6 481/3/6 485/3/6
f 481/3/6 482/3/6 485/3/6
f 482/3/6 458/3/6 486/3/6
f 485/3/6 482/3/6 486/3/6
f 483/3/6 484/3/6 487/3/6
f 459/3/6 483/3/6 487/3/6
f 484/3/6 460/3/6 488/3/6
f 487/3/6 484/3/6 488/3/6
